HIERARCHY
ROOT Hips
{
	OFFSET 0.000000 0.000000 0.000000
	CHANNELS 6 Xposition Yposition Zposition Xrotation Yrotation Zrotation
	JOINT LeftUpLeg_virtual
	{
		OFFSET 0.000000 0.000000 0.000000
		CHANNELS 3 Xrotation Yrotation Zrotation
		JOINT LeftUpLeg
		{
			OFFSET 10.205400 -3.823500 0.155100
			CHANNELS 3 Xrotation Yrotation Zrotation
			JOINT LeftLeg
			{
				OFFSET 0.708757 -12.982077 0.567790
				CHANNELS 3 Xrotation Yrotation Zrotation
				JOINT LeftFoot
				{
					OFFSET -0.708756 -10.717838 -2.184338
					CHANNELS 3 Xrotation Yrotation Zrotation
					JOINT LeftToeBase
					{
						OFFSET 0.108149 -7.191104 7.560241
						CHANNELS 3 Xrotation Yrotation Zrotation
						JOINT LeftToe_End
						{
							OFFSET 0.070230 0.081724 4.490308
							CHANNELS 3 Xrotation Yrotation Zrotation
							End Site
							{
								OFFSET 0 0 0
							}
						}
					}
				}
			}
		}
	}
	JOINT RightUpLeg_virtual
	{
		OFFSET 0.000000 0.000000 0.000000
		CHANNELS 3 Xrotation Yrotation Zrotation
		JOINT RightUpLeg
		{
			OFFSET -10.205400 -3.823500 0.005500
			CHANNELS 3 Xrotation Yrotation Zrotation
			JOINT RightLeg
			{
				OFFSET -0.708756 -12.982134 0.610632
				CHANNELS 3 Xrotation Yrotation Zrotation
				JOINT RightFoot
				{
					OFFSET 0.708754 -10.717769 -1.945823
					CHANNELS 3 Xrotation Yrotation Zrotation
					JOINT RightToeBase
					{
						OFFSET -0.108140 -7.191069 7.372968
						CHANNELS 3 Xrotation Yrotation Zrotation
						JOINT RightToe_End
						{
							OFFSET -0.070227 0.081735 4.479403
							CHANNELS 3 Xrotation Yrotation Zrotation
							End Site
							{
								OFFSET 0 0 0
							}
						}
					}
				}
			}
		}
	}
	JOINT Spine_virtual
	{
		OFFSET 0.000000 0.000000 0.000000
		CHANNELS 3 Xrotation Yrotation Zrotation
		JOINT Spine
		{
			OFFSET 0.000000 6.876099 0.125700
			CHANNELS 3 Xrotation Yrotation Zrotation
			JOINT Spine1
			{
				OFFSET 0.000000 5.730043 0.104720
				CHANNELS 3 Xrotation Yrotation Zrotation
				JOINT Spine1_split
				{
					OFFSET 0.000000 5.730043 0.104720
					CHANNELS 3 Xrotation Yrotation Zrotation
					JOINT Spine2
					{
						OFFSET 0.000000 5.730043 0.104720
						CHANNELS 3 Xrotation Yrotation Zrotation
						JOINT Neck_virtual
						{
							OFFSET 0.000000 0.000000 0.000000
							CHANNELS 3 Xrotation Yrotation Zrotation
							JOINT Neck
							{
								OFFSET 0.000000 10.314075 0.188496
								CHANNELS 3 Xrotation Yrotation Zrotation
								JOINT Head
								{
									OFFSET 0.000000 7.643700 -2.377400
									CHANNELS 3 Xrotation Yrotation Zrotation
									JOINT HeadTop_End
									{
										OFFSET 0.000000 43.788605 -13.619600
										CHANNELS 3 Xrotation Yrotation Zrotation
										End Site
										{
											OFFSET 0 0 0
										}
									}
								}
							}
						}
						JOINT LeftShoulder_virtual
						{
							OFFSET 0.000000 0.000000 0.000000
							CHANNELS 3 Xrotation Yrotation Zrotation
							JOINT LeftShoulder
							{
								OFFSET 2.196100 4.412489 0.087492
								CHANNELS 3 Xrotation Yrotation Zrotation
								JOINT LeftShoulder_split
								{
									OFFSET 2.196100 4.412489 0.087492
									CHANNELS 3 Xrotation Yrotation Zrotation
									JOINT LeftArm
									{
										OFFSET 8.771219 -2.981674 -0.026999
										CHANNELS 3 Xrotation Yrotation Zrotation
										JOINT LeftForeArm
										{
											OFFSET 8.512804 0.000000 -0.000000
											CHANNELS 3 Xrotation Yrotation Zrotation
											JOINT LeftHand
											{
												OFFSET 18.484802 0.000000 -0.000000
												CHANNELS 3 Xrotation Yrotation Zrotation
												End Site
												{
													OFFSET 0 0 0
												}
											}
										}
									}
								}
							}
						}
						JOINT RightShoulder_virtual
						{
							OFFSET 0.000000 0.000000 0.000000
							CHANNELS 3 Xrotation Yrotation Zrotation
							JOINT RightShoulder
							{
								OFFSET -2.196100 4.412496 0.070690
								CHANNELS 3 Xrotation Yrotation Zrotation
								JOINT RightShoulder_split
								{
									OFFSET -2.196100 4.412496 0.070690
									CHANNELS 3 Xrotation Yrotation Zrotation
									JOINT RightArm
									{
										OFFSET -8.771282 -2.981682 -0.094208
										CHANNELS 3 Xrotation Yrotation Zrotation
										JOINT RightForeArm
										{
											OFFSET -8.494598 0.000000 0.000000
											CHANNELS 3 Xrotation Yrotation Zrotation
											JOINT RightHand
											{
												OFFSET -18.483803 0.000000 0.000001
												CHANNELS 3 Xrotation Yrotation Zrotation
												End Site
												{
													OFFSET 0 0 0
												}
											}
										}
									}
								}
							}
						}
					}
				}
			}
		}
	}
}
MOTION
Frames: 5
Frame Time: 0.03333333
-0.979765 16.487019 26.947964 0.000000 0.000000 0.000000 21.964348 -28.020967 -7.525886 9.261829 0.058013 9.432587 100.586372 -14.724645 -3.720778 6.561670 0.285119 -21.517034 0.660003 -0.796914 -4.391216 0.000000 0.000000 0.000000 22.104073 -19.932647 -9.833592 -3.825708 19.134462 -10.713005 70.851847 14.525939 -7.870231 48.931940 5.917703 24.099388 16.830867 -4.637703 1.322832 0.000000 0.000000 0.000000 20.905394 -24.417575 -8.963428 7.286110 1.668745 4.061296 -3.111570 2.307483 1.707009 0.183202 -2.932166 1.425923 0.000000 0.000000 0.000000 -4.232802 2.707545 1.876498 -58.842510 -1.815279 19.197903 16.888071 16.020441 -15.630113 0.000000 0.000000 0.000000 -4.780697 2.624362 1.692700 -19.386857 0.749963 -15.480158 -3.669430 3.331650 -3.408958 10.975505 6.676799 -49.594219 72.352235 -32.222691 38.354565 0.000000 0.000000 0.000000 -5.026359 2.500516 1.837441 -18.461361 0.457082 22.921956 -9.606991 0.161880 -1.003100 5.197377 -8.301373 50.613092 6.871200 33.250198 9.270134 0.000000 0.000000 0.000000 
-0.638594 16.490658 28.232626 0.000000 0.000000 0.000000 23.129010 -29.701119 -7.693675 11.685199 0.533691 8.597052 95.727348 -12.275506 -5.861397 5.684770 2.250610 -22.369494 0.760920 -0.970131 -4.469100 0.000000 0.000000 0.000000 23.419663 -21.245638 -9.975008 -3.953687 18.456588 -10.429290 70.233585 14.854184 -7.935448 47.382545 6.331846 23.936251 17.082334 -4.982010 1.009195 0.000000 0.000000 0.000000 22.698863 -24.625786 -9.276870 6.875938 1.391508 4.534552 -3.498327 2.057437 2.101110 0.404602 -2.571033 1.247756 0.000000 0.000000 0.000000 -4.464759 2.572971 2.216304 -60.595253 -2.530916 20.190814 17.910761 16.558764 -16.228181 0.000000 0.000000 0.000000 -5.084841 2.439157 2.063063 -19.413117 1.159620 -15.349660 -3.101321 2.996624 -3.773522 11.896474 10.326064 -46.617728 75.135981 -33.884398 38.748869 0.000000 0.000000 0.000000 -5.321480 2.375351 2.119052 -18.388855 -0.906881 22.479172 -8.628404 -0.037286 -0.171995 5.176878 -4.604117 52.750203 -2.145560 37.775922 13.743588 0.000000 0.000000 0.000000 
-0.328412 16.466114 29.465965 0.000000 0.000000 0.000000 24.683455 -30.966483 -7.420032 14.082352 0.346643 7.282136 91.687913 -10.587353 -6.675438 6.438447 2.880479 -24.568296 -0.587611 -1.151421 -3.783784 0.000000 0.000000 0.000000 25.120169 -22.521552 -9.756943 -4.235209 17.226391 -10.604799 70.091470 15.449355 -7.692695 46.951878 7.720296 24.131502 16.454849 -5.212480 0.302674 0.000000 0.000000 0.000000 24.871859 -24.560281 -9.167647 6.376781 1.044343 4.650972 -3.663991 1.818646 2.561931 0.654550 -2.168659 0.997995 0.000000 0.000000 0.000000 -4.445051 2.420584 2.629771 -62.661761 -3.139170 20.503852 18.651773 16.519788 -16.747308 0.000000 0.000000 0.000000 -5.158228 2.287565 2.517980 -19.464740 1.097775 -14.702300 -1.987330 2.476916 -4.206122 13.492760 11.514528 -43.250305 74.382652 -37.496120 37.389989 0.000000 0.000000 0.000000 -5.256686 2.275389 2.475327 -18.455811 -2.020854 22.013590 -7.406710 -0.717042 0.658441 5.632762 -1.047612 55.291105 -8.028523 44.203236 15.890678 0.000000 0.000000 0.000000 
-0.111436 16.408476 30.584217 0.000000 0.000000 0.000000 26.633525 -31.382568 -6.828481 15.837009 -0.598566 5.729117 87.972502 -9.650265 -6.251273 8.616542 2.174840 -27.538127 -1.402576 -1.370318 -2.763550 0.000000 0.000000 0.000000 27.248985 -23.530077 -9.282067 -4.387413 15.837834 -10.989267 69.872856 16.154383 -7.322187 47.169614 9.613620 24.636267 15.126009 -5.293566 -0.549206 0.000000 0.000000 0.000000 27.434001 -24.224668 -8.783221 5.834458 0.732730 4.430675 -3.644711 1.651050 3.031611 0.809005 -1.686924 0.964545 0.000000 0.000000 0.000000 -4.265177 2.301489 3.058961 -64.891175 -3.531867 20.183979 19.102414 15.852051 -17.134651 0.000000 0.000000 0.000000 -5.030721 2.215381 2.976153 -19.538328 0.604189 -13.638868 -1.087162 2.034143 -4.639563 15.272940 10.828662 -39.862415 69.781099 -41.806775 33.703848 0.000000 0.000000 0.000000 -4.882850 2.245460 2.824030 -18.713470 -2.676069 21.678086 -6.346832 -1.488540 1.256108 6.539174 1.627377 56.931030 -9.741757 51.345015 14.891095 0.000000 0.000000 0.000000 
-0.012295 16.313238 31.556969 0.000000 0.000000 0.000000 29.170116 -30.754102 -6.147599 16.825942 -2.443927 4.136329 83.210842 -8.515861 -5.151350 10.366841 1.201520 -30.004126 -0.831004 -1.500771 -2.102602 0.000000 0.000000 0.000000 29.899932 -23.885713 -8.688467 -3.941724 14.519083 -11.296178 69.047612 16.511704 -6.821963 47.406816 11.106130 25.040599 13.466418 -5.202423 -1.176060 0.000000 0.000000 0.000000 30.307742 -23.574741 -8.375395 5.256227 0.504921 4.010805 -3.515291 1.572679 3.437439 0.921782 -1.226808 1.160455 0.000000 0.000000 0.000000 -4.008267 2.222466 3.404749 -67.158771 -3.700556 19.394373 19.408249 14.697816 -17.437152 0.000000 0.000000 0.000000 -4.770682 2.261060 3.337310 -19.599376 -0.082919 -12.355605 -0.789775 1.462910 -5.198315 17.393767 9.081640 -36.971544 62.255993 -45.825119 28.256025 0.000000 0.000000 0.000000 -4.349298 2.265493 3.085308 -19.097072 -2.907363 21.506614 -5.351625 -1.931561 1.289002 7.750065 3.144617 57.121548 -6.125107 58.272415 9.657761 0.000000 0.000000 0.000000 
